<svg xmlns="http://www.w3.org/2000/svg" xmlns:xlink="http://www.w3.org/1999/xlink" width="150" zoomAndPan="magnify" viewBox="0 0 112.5 112.499997" height="150" preserveAspectRatio="xMidYMid meet" version="1.0"><defs><g/><clipPath id="3eec362d01"><path d="M 25.414062 5.578125 L 86.914062 5.578125 L 86.914062 76.828125 L 25.414062 76.828125 Z M 25.414062 5.578125 " clip-rule="nonzero"/></clipPath></defs><g clip-path="url(#3eec362d01)"><path fill="#ffbd59" d="M 57.902344 6.574219 L 86.914062 23.394531 L 86.914062 27.375 L 85.191406 28.371094 L 85.191406 28.386719 L 73.566406 35.117188 L 73.566406 51.28125 L 59.605469 59.359375 L 59.605469 66.839844 L 68.082031 61.9375 L 68.097656 61.9375 L 80.015625 55.042969 L 80.015625 39.347656 L 86.914062 35.339844 L 86.914062 59.007812 L 71.539062 67.910156 L 71.539062 67.921875 L 56.164062 76.824219 L 52.722656 74.832031 L 52.722656 59.359375 L 49.28125 57.371094 L 56.164062 53.371094 L 66.652344 47.285156 L 66.652344 35.117188 L 61.414062 32.074219 L 56.164062 29.042969 L 45.675781 35.117188 L 45.675781 47.285156 L 49.28125 49.375 L 49.28125 57.371094 L 38.761719 51.28125 L 38.761719 35.105469 L 32.328125 31.371094 L 32.328125 55.042969 L 44.230469 61.9375 L 44.246094 61.9375 L 45.851562 62.859375 L 45.851562 70.851562 L 40.789062 67.921875 L 40.789062 67.910156 L 25.414062 59.007812 L 25.414062 23.394531 L 28.855469 21.402344 L 30.578125 22.398438 L 42.21875 29.132812 L 56.164062 21.050781 L 57.902344 22.046875 L 70.109375 29.132812 L 76.570312 25.382812 L 68.082031 20.464844 L 56.164062 13.570312 L 42.628906 21.402344 L 35.742188 17.40625 L 56.164062 5.578125 Z M 50.066406 39.1875 C 50.621094 39.1875 51.117188 39.40625 51.480469 39.773438 C 51.847656 40.140625 52.066406 40.652344 52.066406 41.207031 C 52.066406 41.75 51.847656 42.261719 51.480469 42.628906 C 51.117188 42.996094 50.621094 43.214844 50.066406 43.214844 C 49.511719 43.214844 49.003906 42.996094 48.636719 42.628906 C 48.273438 42.261719 48.054688 41.75 48.054688 41.207031 C 48.054688 40.652344 48.273438 40.140625 48.636719 39.773438 C 49.003906 39.40625 49.511719 39.1875 50.066406 39.1875 Z M 62.277344 39.1875 C 62.832031 39.1875 63.328125 39.40625 63.691406 39.773438 C 64.054688 40.140625 64.273438 40.652344 64.273438 41.207031 C 64.273438 41.75 64.054688 42.261719 63.691406 42.628906 C 63.328125 42.996094 62.832031 43.214844 62.277344 43.214844 C 61.722656 43.214844 61.210938 42.996094 60.847656 42.628906 C 60.496094 42.261719 60.261719 41.75 60.261719 41.207031 C 60.261719 40.652344 60.496094 40.140625 60.847656 39.789062 C 61.210938 39.40625 61.722656 39.1875 62.277344 39.1875 Z M 56.164062 39.1875 C 56.71875 39.1875 57.214844 39.40625 57.578125 39.773438 C 57.945312 40.140625 58.175781 40.652344 58.175781 41.207031 C 58.175781 41.75 57.945312 42.261719 57.578125 42.628906 C 57.214844 42.996094 56.71875 43.214844 56.164062 43.214844 C 55.609375 43.214844 55.113281 42.996094 54.75 42.628906 C 54.386719 42.261719 54.167969 41.75 54.167969 41.207031 C 54.167969 40.652344 54.386719 40.140625 54.75 39.773438 C 55.113281 39.40625 55.609375 39.1875 56.164062 39.1875 Z M 56.164062 39.1875 " fill-opacity="1" fill-rule="nonzero"/></g><g fill="#ffffff" fill-opacity="1"><g transform="translate(24.067968, 102.331775)"><g><path d="M 11.25 0 L 10.484375 -2.921875 L 5.421875 -2.921875 L 4.625 0 L 0 0 L 5.09375 -15.65625 L 10.703125 -15.65625 L 15.859375 0 Z M 9.609375 -6.375 L 8.9375 -8.9375 C 8.78125 -9.507812 8.585938 -10.242188 8.359375 -11.140625 C 8.140625 -12.046875 7.992188 -12.695312 7.921875 -13.09375 C 7.859375 -12.726562 7.734375 -12.128906 7.546875 -11.296875 C 7.359375 -10.460938 6.941406 -8.820312 6.296875 -6.375 Z M 9.609375 -6.375 "/></g></g></g><g fill="#ffffff" fill-opacity="1"><g transform="translate(39.924748, 102.331775)"><g><path d="M 8.734375 -12.296875 C 9.097656 -12.296875 9.441406 -12.269531 9.765625 -12.21875 L 10 -12.171875 L 9.625 -8.234375 C 9.289062 -8.316406 8.820312 -8.359375 8.21875 -8.359375 C 7.300781 -8.359375 6.632812 -8.148438 6.21875 -7.734375 C 5.8125 -7.316406 5.609375 -6.71875 5.609375 -5.9375 L 5.609375 0 L 1.4375 0 L 1.4375 -12.078125 L 4.546875 -12.078125 L 5.1875 -10.15625 L 5.390625 -10.15625 C 5.742188 -10.789062 6.226562 -11.304688 6.84375 -11.703125 C 7.46875 -12.097656 8.097656 -12.296875 8.734375 -12.296875 Z M 8.734375 -12.296875 "/></g></g></g><g fill="#ffffff" fill-opacity="1"><g transform="translate(50.172471, 102.331775)"><g><path d="M 1.6875 -15.59375 L 7.125 -15.59375 C 9.238281 -15.59375 10.8125 -15.273438 11.84375 -14.640625 C 12.875 -14.015625 13.390625 -13.039062 13.390625 -11.71875 C 13.390625 -10.84375 13.164062 -10.09375 12.71875 -9.46875 C 12.269531 -8.851562 11.675781 -8.457031 10.9375 -8.28125 L 10.9375 -8.171875 C 11.90625 -7.910156 12.601562 -7.484375 13.03125 -6.890625 C 13.46875 -6.296875 13.6875 -5.519531 13.6875 -4.5625 C 13.6875 -3.144531 13.15625 -2.03125 12.09375 -1.21875 C 11.03125 -0.40625 9.582031 0 7.75 0 L 1.6875 0 Z M 5.890625 -9.609375 L 7.171875 -9.609375 C 7.773438 -9.609375 8.238281 -9.734375 8.5625 -9.984375 C 8.894531 -10.234375 9.0625 -10.601562 9.0625 -11.09375 C 9.0625 -11.96875 8.398438 -12.40625 7.078125 -12.40625 L 5.890625 -12.40625 Z M 5.890625 -6.53125 L 5.890625 -3.25 L 7.375 -3.25 C 8.695312 -3.25 9.359375 -3.804688 9.359375 -4.921875 C 9.359375 -5.441406 9.179688 -5.835938 8.828125 -6.109375 C 8.472656 -6.390625 7.960938 -6.53125 7.296875 -6.53125 Z M 5.890625 -6.53125 "/></g></g></g><g fill="#ffffff" fill-opacity="1"><g transform="translate(64.888244, 102.331775)"><g><path d="M 7.28125 0.21875 C 5.257812 0.21875 3.691406 -0.316406 2.578125 -1.390625 C 1.472656 -2.460938 0.921875 -3.988281 0.921875 -5.96875 C 0.921875 -8 1.4375 -9.5625 2.46875 -10.65625 C 3.5 -11.75 4.96875 -12.296875 6.875 -12.296875 C 8.695312 -12.296875 10.101562 -11.820312 11.09375 -10.875 C 12.082031 -9.925781 12.578125 -8.554688 12.578125 -6.765625 L 12.578125 -4.921875 L 5.125 -4.921875 C 5.15625 -4.242188 5.398438 -3.710938 5.859375 -3.328125 C 6.328125 -2.941406 6.96875 -2.75 7.78125 -2.75 C 8.507812 -2.75 9.179688 -2.816406 9.796875 -2.953125 C 10.410156 -3.097656 11.078125 -3.335938 11.796875 -3.671875 L 11.796875 -0.671875 C 11.140625 -0.335938 10.460938 -0.109375 9.765625 0.015625 C 9.066406 0.148438 8.238281 0.21875 7.28125 0.21875 Z M 7.03125 -9.453125 C 6.539062 -9.453125 6.128906 -9.296875 5.796875 -8.984375 C 5.460938 -8.679688 5.269531 -8.203125 5.21875 -7.546875 L 8.796875 -7.546875 C 8.785156 -8.128906 8.617188 -8.59375 8.296875 -8.9375 C 7.984375 -9.28125 7.5625 -9.453125 7.03125 -9.453125 Z M 7.03125 -9.453125 "/></g></g></g><g fill="#ffffff" fill-opacity="1"><g transform="translate(78.388367, 102.331775)"><g><path d="M 7.359375 -3.078125 C 7.921875 -3.078125 8.59375 -3.21875 9.375 -3.5 L 9.375 -0.453125 C 8.8125 -0.210938 8.273438 -0.0390625 7.765625 0.0625 C 7.253906 0.164062 6.660156 0.21875 5.984375 0.21875 C 4.578125 0.21875 3.566406 -0.125 2.953125 -0.8125 C 2.335938 -1.5 2.03125 -2.554688 2.03125 -3.984375 L 2.03125 -8.953125 L 0.5625 -8.953125 L 0.5625 -10.65625 L 2.421875 -11.96875 L 3.5 -14.5 L 6.234375 -14.5 L 6.234375 -12.078125 L 9.1875 -12.078125 L 9.1875 -8.953125 L 6.234375 -8.953125 L 6.234375 -4.25 C 6.234375 -3.46875 6.609375 -3.078125 7.359375 -3.078125 Z M 7.359375 -3.078125 "/></g></g></g></svg>